<?xml version="1.0" encoding="utf-8"?>
<!-- Generator: Adobe Illustrator 19.2.0, SVG Export Plug-In . SVG Version: 6.00 Build 0)  -->
<svg version="1.1" id="Layer_1" xmlns="http://www.w3.org/2000/svg" xmlns:xlink="http://www.w3.org/1999/xlink" x="0px" y="0px"
	 viewBox="0 0 25 25" style="enable-background:new 0 0 25 25;" xml:space="preserve">
<style type="text/css">
	.st0{fill:#FFFFFF;stroke:#000000;stroke-width:0.75;stroke-miterlimit:10;}
	.st1{fill:none;stroke:#000000;stroke-width:0.5;stroke-miterlimit:10;}
	.st2{fill:none;stroke:#000000;stroke-width:0.75;stroke-miterlimit:10;}
</style>
<g>
	<g>
		<g>
			<rect x="4.1" y="9.8" class="st0 svg__st" width="2.6" height="8.6"/>
			<path class="st0 svg__st" d="M2.9,8.3C2.8,8.5,2.8,8.7,2.8,8.9c0,0.8,0.7,1.5,1.5,1.5h2.1c0.8,0,1.5-0.7,1.5-1.5c0-0.2,0-0.4-0.1-0.6H2.9
				z"/>
			<path class="st0 svg__st" d="M7.8,20.1c0.1-0.2,0.1-0.4,0.1-0.6c0-0.8-0.7-1.5-1.5-1.5H4.3c-0.8,0-1.5,0.7-1.5,1.5c0,0.2,0,0.4,0.1,0.6
				H7.8z"/>
		</g>
		<g>
			<rect x="11.2" y="9.8" class="st0 svg__st" width="2.6" height="8.6"/>
			<path class="st0 svg__st" d="M10,8.3C10,8.5,9.9,8.7,9.9,8.9c0,0.8,0.7,1.5,1.5,1.5h2.1c0.8,0,1.5-0.7,1.5-1.5c0-0.2,0-0.4-0.1-0.6H10z"
				/>
			<path class="st0 svg__st" d="M15,20.1c0.1-0.2,0.1-0.4,0.1-0.6c0-0.8-0.7-1.5-1.5-1.5h-2.1c-0.8,0-1.5,0.7-1.5,1.5c0,0.2,0,0.4,0.1,0.6
				H15z"/>
		</g>
		<g>
			<rect x="18.3" y="9.8" class="st0 svg__st" width="2.6" height="8.6"/>
			<path class="st0 svg__st" d="M17.2,8.3c-0.1,0.2-0.1,0.4-0.1,0.6c0,0.8,0.7,1.5,1.5,1.5h2.1c0.8,0,1.5-0.7,1.5-1.5c0-0.2,0-0.4-0.1-0.6
				H17.2z"/>
			<path class="st0 svg__st" d="M22.1,20.1c0.1-0.2,0.1-0.4,0.1-0.6c0-0.8-0.7-1.5-1.5-1.5h-2.1c-0.8,0-1.5,0.7-1.5,1.5c0,0.2,0,0.4,0.1,0.6
				H22.1z"/>
		</g>
		<line class="st1 svg__st" x1="5.4" y1="10.4" x2="5.4" y2="18"/>
		<line class="st1 svg__st" x1="12.4" y1="10.4" x2="12.4" y2="18"/>
		<line class="st1 svg__st" x1="19.6" y1="10.4" x2="19.6" y2="18"/>
	</g>
	<rect x="2.5" y="20.1" class="st0 svg__st" width="20" height="1.5"/>
	<polygon class="st2 svg__st" points="24.3,8.2 0.7,8.2 0.7,6.8 12.5,0.9 24.3,6.8 	"/>
	<ellipse class="st2 svg__st" cx="12.3" cy="4.8" rx="1.6" ry="1.6"/>
	<g>
		<rect x="0.9" y="21.5" class="st0 svg__st" width="23.2" height="2.6"/>
		<g>
			<line class="st1 svg__st" x1="0.9" y1="22.8" x2="4.1" y2="22.8"/>
			<line class="st1 svg__st" x1="20.9" y1="22.8" x2="24.1" y2="22.8"/>
		</g>
	</g>
</g>
</svg>
