<?xml version="1.0" encoding="utf-8"?>
<!-- Generator: Adobe Illustrator 19.2.0, SVG Export Plug-In . SVG Version: 6.00 Build 0)  -->
<svg version="1.1" id="Layer_1" width="110px" height="51px" xmlns="http://www.w3.org/2000/svg" xmlns:xlink="http://www.w3.org/1999/xlink" x="0px" y="0px"
	 viewBox="0 0 232.6 109.4" style="enable-background:new 0 0 232.6 109.4;" xml:space="preserve">
<style type="text/css">
	.st0{fill:#970048;stroke:#970048;stroke-width:0.25;stroke-miterlimit:10;}
	.st1{fill:#970048;}
	.st2{fill:#970048;stroke:#970048;stroke-width:0.1;stroke-miterlimit:10;}
</style>
<g>
	<path class="st0" d="M80.3,16.9c-0.2-0.2-0.4-0.4-0.7-0.4c0,0-3-0.3-7.2-0.5V1c0-0.4-0.2-0.7-0.5-0.9c-0.3-0.2-0.7-0.2-1,0L58.6,7
		c-4.5-2.9-11-6.1-18-6.1H39c-7,0-13.5,3.2-18,6.1L8.9,0.1C8.6,0,8.2,0,7.8,0.1C7.5,0.3,7.3,0.7,7.3,1v15c-3.7,0.2-6.3,0.4-6.4,0.4
		C0.4,16.5,0,17,0,17.6c0.1,0.8,1.5,15.3,7.3,24.7V53c-0.4-0.1-0.7-0.2-0.8-0.2c-0.3-0.1-0.6,0-0.9,0.2c-0.3,0.2-0.4,0.5-0.4,0.8
		c0,0.9-0.8,22.6,7.7,35c6.7,9.7,14.8,14.8,19.4,17.1c4.1,2.3,7.1,3.4,7.3,3.4c0.1,0,0.2,0.1,0.4,0.1c0.1,0,0.3,0,0.4-0.1
		c0.2-0.1,2.9-1.2,6.7-3.4c4.6-2.3,12.8-7.4,19.4-17.1c1.1-1.6,2-3.4,2.9-5.2c2.1-4.1,3.4-8.5,3.7-12.9c1.5-8.7,1.2-16.4,1.2-16.9
		c0-0.3-0.2-0.6-0.4-0.8c-0.3-0.2-0.6-0.3-0.9-0.2c-0.1,0-0.3,0.1-0.6,0.2v-9.3c2.1-3.1,4-7.5,5.6-13.1c1.9-6.7,2.6-12.6,2.6-12.9
		C80.6,17.4,80.5,17.1,80.3,16.9z M9.4,2.8l11.2,6.3c0.3,0.2,0.8,0.2,1.1,0c3.1-2.1,7.5-4.4,12.3-5.5v7.5c0,0.6,0.5,1,1,1
		c0.6,0,1-0.5,1-1V3.2C36.9,3,37.9,3,38.8,3v11c0,0.6,0.5,1,1,1c0.6,0,1-0.5,1-1V3c0.9,0,1.8,0.1,2.7,0.2v7.9c0,0.6,0.5,1,1,1
		c0.6,0,1-0.5,1-1V3.6C50.5,4.6,54.9,7,58,9.1c0.3,0.2,0.7,0.2,1.1,0l11.2-6.3v13.1c-1.1,0-2.2,0-3.3,0c-10,0-16.8,1.3-20.1,3.7
		c-2.9,2.1-4.9,4.9-6.1,8.1c-0.2,0.4-0.4,0.8-0.6,1.3c-1-3.6-3.2-6.9-6.5-9.3c-3.3-2.5-10.1-3.7-20.1-3.7c-1.4,0-2.8,0-4.2,0.1V2.8z
		 M54,47.8c-1.9,0-4.2-0.7-6-1.5c-1.2-0.9-2.2-1.9-3.1-3.2c-3.2-4.4-3.8-9.9-2.1-14.6c2.2-3.9,6.4-6.6,11.3-6.6
		c7.1,0,12.9,5.8,12.9,12.9C66.9,42,61.1,47.8,54,47.8z M26,47.8c-7.1,0-12.9-5.8-12.9-12.9c0-7.1,5.8-12.9,12.9-12.9
		c6.2,0,11.5,4.4,12.7,10.3c0.4,3.7-0.6,7.7-3,10.9c-0.7,1-1.5,1.8-2.4,2.6C31.4,46.6,28.4,47.8,26,47.8z M37.4,44.4
		c1.4-1.9,2.3-3.9,2.8-6c0.6,2.1,1.5,4.1,2.9,6c0.2,0.2,0.3,0.4,0.5,0.6c0,0-0.1,0.1-0.1,0.1L40,49.9l-3.4-4.5
		C36.9,45.1,37.2,44.8,37.4,44.4z M13.6,18c9.4,0,15.9,1.1,18.9,3.3c0,0,0,0,0,0c-2-0.9-4.2-1.5-6.5-1.5c-8.3,0-15,6.7-15,15
		c0,7,4.8,12.9,11.3,14.6c-3-0.2-5.8-1.2-8.4-3c-8.3-5.6-11-23.4-11.6-28C4.2,18.3,8.6,18,13.6,18z M35.5,103.8
		c-0.1,0.4-0.1,0.8-0.2,1.2c-0.4-0.2-1-0.4-1.6-0.7c-0.8-0.5-1.7-1-2.7-1.6c6-15.4,0-32.8-13.4-43c5.6,3.1,11.7,8,15.1,15.1
		C38,86.2,36.2,98.6,35.5,103.8z M14.6,87.6C8.1,78,7.3,62,7.3,56.1C26,64,35.7,84.1,29.2,101.6c-1.4-1-2.9-2-4.4-3.2
		C22,96,19.4,93.6,17.2,91C16.3,90,15.5,88.8,14.6,87.6z M44.1,105c0-0.3-0.1-0.7-0.2-1.2c-0.8-5.3-2.5-17.6,2.8-29.1
		c3.3-7.1,9.5-12,15.1-15.1c-13.5,10.3-19.4,27.6-13.5,43c-0.9,0.6-1.7,1.1-2.5,1.5C45.2,104.5,44.6,104.8,44.1,105z M66.1,85.4
		C63.4,89.8,59.6,94,55,97.8c-1.6,1.4-3.2,2.6-4.8,3.7C43.8,84,53.5,64,72.1,56.1C72.1,61.6,71.5,75.8,66.1,85.4z M70.3,53.6
		c-5.8,1.9-19.4,7.7-25.3,20.3c-5.6,12-3.8,24.8-3,30.3c0.1,0.8,0.2,1.6,0.2,2c0,0.1,0,0.1-0.1,0.2c-1,0.5-1.7,0.8-2.1,1
		c-0.5-0.2-1.4-0.6-2.7-1.2c0-0.4,0.1-1.2,0.2-2c0.8-5.5,2.6-18.2-3-30.3C28.7,61.5,15.4,55.7,9.4,53.7v-8.5c1,1.1,2,2.1,3.2,2.9
		c3.3,2.2,7,3.4,10.8,3.4c4.1,0,8-1.4,11.1-4c0.3-0.1,0.6-0.3,0.8-0.4l3.8,5.1c0.2,0.3,0.5,0.4,0.8,0.4c0.3,0,0.6-0.2,0.8-0.4
		l3.8-5.1c0.6,0.3,1.4,0.7,2.4,1.1c2.9,2,6.3,3.1,10,3.1h0c3.7,0,7.5-1.1,10.8-3.2c0.8-0.5,1.6-1.2,2.4-1.9V53.6z M75.9,30
		c-2.4,8.5-5.5,14.2-9.1,16.4c-2.6,1.6-5.4,2.5-8.2,2.8c6-1.9,10.4-7.6,10.4-14.3c0-8.3-6.7-15-15-15c-1.7,0-3.3,0.3-4.8,0.8
		C52.5,18.9,58.6,18,67,18c4.9,0,9.4,0.3,11.3,0.5C78,20.5,77.3,25.1,75.9,30z"/>
	<path class="st1" d="M26,25.7c-5,0-9.1,4.1-9.1,9.1s4.1,9.1,9.1,9.1c5,0,9.1-4.1,9.1-9.1S31,25.7,26,25.7z M26,38.1
		c-1.9,0-3.4-1.5-3.4-3.4s1.5-3.4,3.4-3.4c1.9,0,3.4,1.5,3.4,3.4S27.8,38.1,26,38.1z"/>
	<path class="st1" d="M53.8,25.7c-5,0-9.1,4.1-9.1,9.1s4.1,9.1,9.1,9.1c5,0,9.1-4.1,9.1-9.1S58.8,25.7,53.8,25.7z M53.8,38.1
		c-1.9,0-3.4-1.5-3.4-3.4s1.5-3.4,3.4-3.4c1.9,0,3.4,1.5,3.4,3.4S55.6,38.1,53.8,38.1z"/>
	<path class="st0" d="M102.3,26.6h-3.1c-0.2-0.6-0.3-1.2-0.3-1.7c0-0.4,0.1-0.7,0.3-0.8c0.2-0.2,0.5-0.3,0.9-0.3h10.9
		c6.8,0,11.4,0.8,13.7,2.5c2.3,1.7,3.5,4.4,3.5,8.2c0,3.9-1.4,7-4.2,9.1c-2.8,2.2-7.5,3.3-14,3.3h-1.4c0,5.6,0.1,9.3,0.2,11.2h4.2
		c0.2,0.5,0.3,1.1,0.3,1.6c0,0.5-0.1,0.8-0.3,1c-0.2,0.2-0.5,0.3-1,0.3H99c-0.2-0.6-0.4-1.2-0.4-1.7c0-0.4,0.1-0.7,0.3-0.8
		c0.2-0.2,0.5-0.3,0.9-0.3h2.5c0.1-2.5,0.2-9,0.2-19.4C102.5,33.2,102.5,29.1,102.3,26.6z M110.7,43.5c4,0,6.8-0.6,8.4-1.7
		c1.6-1.1,2.4-3.1,2.4-5.8c0-2.6-0.8-4.6-2.3-6.1c-1.5-1.4-4-2.1-7.4-2.1c-1.1,0-2.2,0.1-3.1,0.3c-0.1,1.6-0.2,5.2-0.2,11v4.4H110.7
		z"/>
	<path class="st0" d="M131.8,35.3c0-0.5,0.2-0.8,0.6-0.9c0.4-0.1,2.8-0.3,7.2-0.4c0.1,0.8,0.1,1.9,0,3.3c2-1.4,3.9-2.3,5.8-2.8
		c1.9-0.5,3.5-0.8,5.1-0.8c0.5,0,0.8,0.1,1,0.2c0.2,0.1,0.3,0.4,0.3,0.8c0,0.8-0.1,1.6-0.4,2.5c-0.2,0.9-0.5,1.4-0.9,1.7
		c-0.3,0.2-0.9,0.4-1.7,0.5c-0.8,0.1-1.3,0.2-1.4,0.1c-0.1-0.1-0.5-0.6-1.2-1.5c-1.6,0-2.9,0.5-3.9,1.5c-1,1-1.5,3.1-1.5,6.2
		c0,5.6,0.1,9.7,0.2,12.4h3.8c0.2,0.5,0.3,1,0.3,1.5c0,0.5-0.1,0.8-0.3,1c-0.2,0.2-0.6,0.3-1.1,0.3h-11.5c-0.2-0.6-0.4-1.1-0.4-1.6
		c0-0.4,0.1-0.7,0.3-0.9c0.2-0.2,0.5-0.3,1-0.3h1.9c0.1-2.7,0.2-6.2,0.2-10.6c0-5.3-0.2-8.4-0.6-9.3c-0.4-0.9-1.2-1.3-2.4-1.3
		C131.9,36.4,131.8,35.9,131.8,35.3z"/>
	<path class="st0" d="M170.7,58.7c-1.5,0.9-3.1,1.6-4.7,2c-1.6,0.5-3.2,0.7-4.7,0.7c-2.4,0-4.3-0.6-5.5-1.7
		c-1.2-1.1-1.8-2.9-1.8-5.1c0-2.8,1-4.9,3-6.4c2-1.5,5-2.2,9.1-2.2h4c-0.1-3.2-0.6-5.4-1.4-6.7c-0.8-1.2-2.2-1.9-4.3-1.9
		c-1.1,0-2.1,0.1-3.1,0.3c-0.5,1-0.8,1.6-0.9,1.7c-0.1,0.1-0.6,0.2-1.6,0.5c-0.9,0.2-1.6,0.2-2-0.1c-0.4-0.3-0.8-0.9-1.1-1.8
		c-0.4-0.9-0.6-1.6-0.6-2.1c0-0.4,0.1-0.6,0.4-0.8c0.3-0.2,1.5-0.4,3.7-0.7c2.1-0.3,4.4-0.4,6.8-0.4c3.2,0,5.6,0.6,7.1,1.7
		c1.5,1.1,2.3,3.1,2.3,6.1V50c0,3.9,0.2,6.2,0.5,7.1c0.3,0.9,0.9,1.2,1.7,1c0.2,0.4,0.3,0.8,0.3,1.2c0,0.6-0.4,1.1-1.2,1.4
		c-0.8,0.3-1.8,0.5-3.1,0.5c-0.6,0-1.1-0.1-1.5-0.2C172,60.8,171.5,60,170.7,58.7z M170.2,49.5c-1.6-0.3-3.2-0.4-4.8-0.4
		c-2.1,0-3.5,0.3-4.3,1c-0.8,0.7-1.2,1.8-1.2,3.3c0,1.4,0.4,2.5,1.1,3.3c0.7,0.7,1.9,1.1,3.4,1.1c1.2,0,2.3-0.2,3.3-0.7
		c1-0.5,1.7-1.1,2-2c0.3-0.8,0.5-2.2,0.5-4V49.5z"/>
	<path class="st0" d="M199.5,37.3h-1.5c-0.2-0.5-0.3-1.1-0.3-1.6c0-0.5,0.1-0.9,0.3-1.1c0.2-0.2,0.5-0.3,1-0.3h7.1
		c0.2,0.5,0.4,1.1,0.4,1.6c0,0.6-0.1,0.9-0.4,1.1c-0.2,0.2-0.6,0.3-1.2,0.3h-0.4c-0.7,1.8-2.1,5.9-4.2,12.2
		c-2.1,6.3-3.5,9.8-4.1,10.7c-0.6,0.8-1.6,1.2-2.9,1.2c-2.2,0-3.3-0.1-3.5-0.3c-0.2-0.2-1.2-3.4-3.2-9.6c-2-6.2-3.2-9.9-3.6-11
		c-0.4-1.1-0.8-2-1.1-2.5c-0.3-0.5-0.6-0.8-1-0.9c-0.4-0.1-0.9-0.2-1.5-0.2c-0.2-0.6-0.4-1.1-0.4-1.6c0-0.5,0.3-0.9,0.9-1.1
		c0.6-0.2,2.1-0.2,4.7-0.2c1.1,0,1.9,0.1,2.3,0.3c0.4,0.2,0.8,0.5,1,1c0.2,0.5,0.5,1.5,0.8,3.2c0.3,1.7,1.2,5.1,2.7,10.4
		c1.5,5.2,2.4,7.8,2.5,7.8c0.2,0,1.1-2.7,2.7-8.2C198.4,42.9,199.3,39.2,199.5,37.3z"/>
	<path class="st0" d="M219.6,61.4c-3.9,0-6.8-1-8.7-3.1c-1.8-2.1-2.8-5.2-2.8-9.4c0-4.8,1.1-8.6,3.4-11.3c2.2-2.7,5.5-4,9.7-4
		c3.9,0,6.8,1,8.7,3.1c1.8,2.1,2.8,5.2,2.8,9.4c0,4.8-1.1,8.6-3.4,11.2C227,60.1,223.8,61.4,219.6,61.4z M220.6,57.8
		c2.1,0,3.6-0.8,4.5-2.3c0.9-1.6,1.4-4,1.4-7.2c0-3.7-0.5-6.5-1.4-8.3c-0.9-1.8-2.6-2.7-4.9-2.7c-2.1,0-3.6,0.8-4.5,2.3
		c-0.9,1.6-1.4,4-1.4,7.2c0,3.7,0.5,6.5,1.4,8.3C216.6,56.9,218.3,57.8,220.6,57.8z"/>
	<g>
		<path class="st2" d="M105.8,83.8c-0.7,0.4-1.4,0.7-2.1,0.9c-0.7,0.2-1.4,0.3-2.1,0.3c-1.1,0-1.9-0.3-2.5-0.8
			c-0.5-0.5-0.8-1.3-0.8-2.3c0-1.2,0.4-2.2,1.3-2.9c0.9-0.7,2.3-1,4.1-1h1.8c0-1.4-0.3-2.4-0.6-3c-0.4-0.6-1-0.8-1.9-0.8
			c-0.5,0-1,0-1.4,0.1c-0.2,0.5-0.4,0.7-0.4,0.8c0,0-0.3,0.1-0.7,0.2c-0.4,0.1-0.7,0.1-0.9-0.1c-0.2-0.2-0.3-0.4-0.5-0.8
			c-0.2-0.4-0.3-0.7-0.3-1c0-0.2,0.1-0.3,0.2-0.4c0.1-0.1,0.7-0.2,1.6-0.3c1-0.1,2-0.2,3.1-0.2c1.4,0,2.5,0.2,3.2,0.7
			c0.7,0.5,1,1.4,1,2.7v3.8c0,1.7,0.1,2.8,0.2,3.2c0.2,0.4,0.4,0.5,0.8,0.5c0.1,0.2,0.1,0.4,0.1,0.5c0,0.3-0.2,0.5-0.5,0.6
			c-0.3,0.1-0.8,0.2-1.4,0.2c-0.3,0-0.5,0-0.7-0.1C106.4,84.7,106.2,84.3,105.8,83.8z M105.6,79.6c-0.7-0.1-1.4-0.2-2.2-0.2
			c-0.9,0-1.6,0.2-2,0.5c-0.4,0.3-0.6,0.8-0.6,1.5c0,0.7,0.2,1.1,0.5,1.5c0.3,0.3,0.8,0.5,1.5,0.5c0.5,0,1-0.1,1.5-0.3
			c0.5-0.2,0.8-0.5,0.9-0.9c0.2-0.4,0.2-1,0.2-1.8V79.6z"/>
		<path class="st2" d="M119.9,73.8c0.5,0.8,0.7,1.7,0.7,2.6c0,1.4-0.4,2.5-1.3,3.3c-0.9,0.8-2.3,1.3-4.2,1.3c-0.9,0-1.4,0.1-1.7,0.3
			c-0.3,0.2-0.4,0.5-0.4,0.8c0,0.4,0.2,0.7,0.5,0.9c0.3,0.2,1.6,0.3,3.8,0.3c2.1,0,3.5,0.2,4.1,0.7c0.6,0.4,0.9,1.1,0.9,1.9
			c0,1.3-0.7,2.3-2,3.1c-1.3,0.8-3.4,1.1-6.2,1.1c-1.4,0-2.3-0.2-2.8-0.6c-0.5-0.4-0.7-0.9-0.7-1.6c0-0.5,0.1-1,0.4-1.5
			c0.3-0.5,0.6-1,1.1-1.5c-0.4-0.2-0.7-0.4-1-0.7c-0.2-0.3-0.4-0.7-0.4-1.2c0-0.5,0.2-0.9,0.5-1.4c0.3-0.4,0.8-0.8,1.4-1.1
			c-0.5-0.2-0.9-0.6-1.3-1.1c-0.3-0.5-0.5-1.3-0.5-2.1c0-1.4,0.4-2.6,1.3-3.5c0.9-0.9,2.2-1.4,4-1.4c1,0,1.9,0.2,2.7,0.5
			c1.1-0.5,1.7-0.7,1.9-0.7c1,0,1.5,0,1.6,0.1c0.1,0.1,0.1,0.1,0.1,0.3c0,0.2-0.1,0.5-0.3,0.9c-0.2,0.4-0.4,0.6-0.5,0.6
			c-0.2,0-0.7-0.2-1.6-0.6L119.9,73.8z M113.8,85.1c-0.3,0.3-0.5,0.6-0.7,1c-0.2,0.4-0.2,0.7-0.2,1.1c0,0.6,0.2,1,0.5,1.2
			c0.3,0.2,1,0.4,2,0.4c1.5,0,2.6-0.2,3.3-0.5c0.7-0.4,1.1-0.9,1.1-1.5c0-0.6-0.3-1-0.8-1.2C118.5,85.2,116.7,85.1,113.8,85.1z
			 M115.8,73.8c-0.8,0-1.4,0.2-1.7,0.7c-0.4,0.4-0.6,1.2-0.6,2.4c0,1,0.2,1.7,0.5,2.1c0.4,0.4,0.9,0.7,1.7,0.7
			c0.8,0,1.4-0.2,1.8-0.6c0.4-0.4,0.6-1.2,0.6-2.3c0-1-0.2-1.7-0.6-2.2C117.2,74.1,116.6,73.8,115.8,73.8z"/>
		<path class="st2" d="M128.8,72.4c1.5,0,2.6,0.4,3.4,1.1c0.7,0.7,1.1,1.9,1.1,3.6c0,0.7-0.1,1.2-0.4,1.5c-0.3,0.3-0.8,0.4-1.7,0.4
			h-5.4c0,1.3,0.3,2.4,0.8,3.1c0.5,0.8,1.4,1.1,2.7,1.1c1.2,0,2.4-0.3,3.4-1c0.4,0.4,0.5,0.7,0.5,1.1c0,0.5-0.5,0.9-1.4,1.2
			s-1.9,0.3-3.1,0.3c-2.1,0-3.6-0.4-4.5-1.3c-0.9-0.9-1.4-2.4-1.4-4.5c0-2.1,0.5-3.7,1.5-4.9C125.6,73,127,72.4,128.8,72.4z
			 M128.4,74.1c-0.8,0-1.4,0.3-1.9,0.9c-0.4,0.6-0.7,1.5-0.7,2.7h1.3c1.3,0,2.3,0,2.7-0.1c0.5-0.1,0.8-0.1,0.8-0.3
			c0.1-0.1,0.1-0.4,0.1-0.7c0-0.8-0.2-1.4-0.6-1.9C129.8,74.3,129.2,74.1,128.4,74.1z"/>
		<path class="st2" d="M138.6,74.1c0.8-0.5,1.6-0.9,2.4-1.2c0.8-0.3,1.5-0.4,2.1-0.4c1.1,0,1.9,0.3,2.5,0.8c0.6,0.5,0.8,1.5,0.8,2.9
			c0,4.4,0.1,6.7,0.2,7c0.1,0.3,0.4,0.4,0.9,0.4c0.1,0.2,0.1,0.5,0.1,0.7c0,0.2-0.1,0.4-0.2,0.4c-0.1,0.1-0.4,0.1-0.8,0.1
			c-1.1,0-1.8,0-2.1,0c-0.3,0-0.4-0.1-0.5-0.3c-0.1-0.1-0.1-0.4-0.1-0.7v-5.3c0-1.7-0.2-2.8-0.5-3.4c-0.4-0.6-0.9-0.8-1.7-0.8
			c-0.7,0-1.3,0.2-1.8,0.6c-0.5,0.4-0.7,1.1-0.7,2.1v2.6c0,1.4,0,2.8,0.1,4h1.4c0.1,0.2,0.1,0.4,0.1,0.7c0,0.2,0,0.4-0.1,0.5
			c-0.1,0.1-0.3,0.1-0.5,0.1h-4.8c-0.1-0.3-0.2-0.5-0.2-0.7c0-0.2,0-0.3,0.1-0.4c0.1-0.1,0.2-0.1,0.4-0.1h0.8
			c0.1-1.3,0.1-2.9,0.1-4.8c0-2.4-0.1-3.8-0.3-4.2c-0.2-0.4-0.5-0.6-1.1-0.6c-0.1-0.2-0.2-0.5-0.2-0.7c0-0.2,0.1-0.4,0.3-0.4
			c0.2-0.1,1.3-0.1,3.2-0.2C138.7,73,138.7,73.5,138.6,74.1z"/>
		<path class="st2" d="M154.5,85c-2,0-3.4-0.4-4.3-1.3c-0.8-0.8-1.3-2.3-1.3-4.3c0-2.3,0.5-4,1.6-5.2c1.1-1.2,2.7-1.8,4.9-1.8
			c1.1,0,1.8,0.1,2.3,0.3c0.5,0.2,0.7,0.5,0.7,0.9c0,0.5-0.2,1-0.5,1.4c-1.2-0.6-2.3-1-3.1-1c-1.1,0-1.9,0.4-2.4,1.1
			c-0.5,0.7-0.7,1.9-0.7,3.4c0,1.6,0.2,2.8,0.7,3.6c0.5,0.8,1.3,1.2,2.5,1.2c0.9,0,2-0.3,3.3-0.9c0.3,0.4,0.4,0.8,0.4,1.2
			c0,0.5-0.4,0.8-1.3,1.1C156.5,84.9,155.6,85,154.5,85z"/>
		<path class="st2" d="M171,74.1c-0.4,1.2-1.2,3.7-2.4,7.6c-1.2,3.8-2.1,6.1-2.6,6.8c-0.6,0.7-1.2,1.1-1.9,1.3
			c-0.7,0.2-1.5,0.3-2.4,0.3c-0.9,0-1.5-0.1-1.7-0.2c-0.3-0.1-0.4-0.4-0.4-0.7c0-0.4,0.1-0.8,0.4-1.2c1.5,0.3,2.7,0.4,3.4,0.3
			c0.7-0.1,1.4-1.2,2.2-3.5c-0.7,0-1-0.1-1.1-0.1c-0.1,0-0.5-1.4-1.3-4.1c-0.8-2.7-1.3-4.4-1.5-5c-0.2-0.6-0.4-1-0.5-1.2
			c-0.1-0.2-0.3-0.4-0.4-0.4c-0.2-0.1-0.4-0.1-0.7-0.1c-0.1-0.3-0.2-0.5-0.2-0.7c0-0.3,0.1-0.4,0.4-0.5c0.3-0.1,0.8-0.1,1.7-0.1
			c0.7,0,1.1,0,1.3,0.1c0.2,0.1,0.4,0.2,0.5,0.4c0.1,0.2,0.2,0.8,0.4,1.7c0.2,0.9,0.6,2.5,1.2,4.7c0.6,2.2,0.9,3.3,1,3.3
			c0.1,0,0.4-1.3,1.1-3.8c0.7-2.5,1.1-4.2,1.2-5H168c-0.1-0.2-0.1-0.5-0.1-0.7c0-0.2,0-0.4,0.1-0.5c0.1-0.1,0.2-0.1,0.5-0.1h3.5
			c0.1,0.2,0.2,0.5,0.2,0.7c0,0.3-0.1,0.4-0.2,0.5c-0.1,0.1-0.3,0.1-0.6,0.1H171z"/>
	</g>
</g>
</svg>
