<?xml version="1.0" encoding="utf-8"?>
<!-- Generator: Adobe Illustrator 19.2.0, SVG Export Plug-In . SVG Version: 6.00 Build 0)  -->
<svg version="1.1" id="Layer_1" xmlns="http://www.w3.org/2000/svg" xmlns:xlink="http://www.w3.org/1999/xlink" x="0px" y="0px"
	 viewBox="0 0 24 23" style="enable-background:new 0 0 24 23;" xml:space="preserve">
<style type="text/css">
	.st0{fill:none;stroke:#000000;stroke-width:0.75;stroke-miterlimit:10;}
	.st1{fill:none;stroke:#000000;stroke-width:0.5;stroke-miterlimit:10;}
	.st2{fill:none;stroke:#000000;stroke-width:0.75;stroke-linecap:round;stroke-linejoin:round;stroke-miterlimit:10;}
	.st3{stroke:#000000;stroke-width:0.2758;stroke-miterlimit:10;}
</style>
<g>
	<polygon class="st0 svg__st" points="3.7,18 2.2,21.5 0.7,18 0.7,2.4 3.7,2.4 	"/>
	<line class="st1 svg__st" x1="2.2" y1="2.4" x2="2.2" y2="18"/>
	<line class="st1 svg__st" x1="1.6" y1="20.2" x2="2.8" y2="20.2"/>
	<line class="st2 svg__st" x1="0.9" y1="18" x2="3.5" y2="18"/>
	<g>
		<rect x="7.1" y="6" class="st0 svg__st" width="14" height="16.1"/>
		<line class="st0 svg__st" x1="19.1" y1="6" x2="19.1" y2="22"/>
		<polyline class="st0 svg__st" points="21.1,19.7 23,19.7 23,3.9 		"/>
		<line class="st0 svg__st" x1="8.6" y1="9.2" x2="14.4" y2="9.2"/>
		<line class="st0 svg__st" x1="8.6" y1="10.8" x2="17.8" y2="10.8"/>
		<line class="st0 svg__st" x1="8.6" y1="12.5" x2="14.4" y2="12.5"/>
		<line class="st0 svg__st" x1="8.6" y1="14.1" x2="17.8" y2="14.1"/>
		<line class="st0 svg__st" x1="8.6" y1="15.8" x2="14.4" y2="15.8"/>
		<line class="st2 svg__st" x1="8.1" y1="1.4" x2="20.1" y2="1.4"/>
		<path class="fl0 svg__fl" d="M22.6,3.9h0.7c0,0,0,0,0-0.1c0-1.6-1.3-2.8-2.8-2.8s-2.8,1.3-2.8,2.8c0,0.9,0.4,1.6,1,2.2h1.4V5.8c-0.9-0.2-1.6-1-1.6-2
			c0-1.1,0.9-2.1,2.1-2.1S22.6,2.7,22.6,3.9C22.6,3.8,22.6,3.8,22.6,3.9z"/>
		<path class="fl0 svg__fl" d="M6.5,3.7c0-1,0.7-1.9,1.7-2V1C6.9,1.1,5.8,2.3,5.8,3.7c0,0.9,0.4,1.6,1,2.2h1.4V5.8C7.2,5.6,6.5,4.7,6.5,3.7z"/>
		<circle class="st1 svg__st" cx="20.6" cy="3.8" r="0.9"/>
		<line class="st1 svg__st" x1="6.5" y1="3.7" x2="8.2" y2="3.7"/>
		<line class="st1 svg__st" x1="16.4" y1="3.7" x2="18.1" y2="3.7"/>
	</g>
	<polygon class="st3 svg__fl" points="2.8,20.2 2.2,21.6 1.6,20.2"/>
</g>
</svg>
