<?xml version="1.0" encoding="utf-8"?>
<!-- Generator: Adobe Illustrator 19.2.0, SVG Export Plug-In . SVG Version: 6.00 Build 0)  -->
<svg version="1.1" id="Layer_1" xmlns="http://www.w3.org/2000/svg" xmlns:xlink="http://www.w3.org/1999/xlink" x="0px" y="0px"
	 viewBox="0 0 12 12" style="enable-background:new 0 0 12 12;" xml:space="preserve">
<style type="text/css">
	.st0{enable-background:new    ;}
	.st1{fill:#A70C5D;}
</style>
<g class="st0">
	<path class="st1" d="M5.6,8.5c0,0.5-0.2,1-0.6,1.4c-0.4,0.4-0.9,0.6-1.6,0.6c-0.5,0-0.8-0.1-1.2-0.3c-0.3-0.2-0.6-0.4-0.8-0.7
		C1.3,9.3,1.2,9,1.1,8.7S0.9,8,0.9,7.7c0-0.7,0.1-1.3,0.3-1.9c0.2-0.6,0.5-1.2,0.8-1.7c0.3-0.5,0.7-1,1.2-1.3C3.8,2.3,4.2,2,4.7,1.8
		l1.1,1.4c-0.6,0.4-1,0.9-1.3,1.3C4.1,5.1,3.9,5.7,3.9,6.4c0.5,0,0.9,0.3,1.2,0.7C5.4,7.5,5.6,7.9,5.6,8.5z M11,8.5
		c0,0.5-0.2,1-0.6,1.4c-0.4,0.4-0.9,0.6-1.6,0.6c-0.5,0-0.8-0.1-1.2-0.3C7.4,10.1,7.2,9.9,7,9.6C6.8,9.3,6.6,9,6.5,8.7
		C6.5,8.4,6.4,8,6.4,7.7c0-0.7,0.1-1.3,0.3-1.9C7,5.2,7.2,4.6,7.6,4.1s0.8-1,1.2-1.3C9.3,2.3,9.7,2,10.2,1.8l1.1,1.4
		c-0.6,0.4-1,0.9-1.3,1.3C9.6,5.1,9.4,5.7,9.4,6.4c0.5,0,0.9,0.3,1.2,0.7C10.9,7.5,11,7.9,11,8.5z"/>
</g>
</svg>
