<?xml version="1.0" encoding="utf-8"?>
<!-- Generator: Adobe Illustrator 19.2.0, SVG Export Plug-In . SVG Version: 6.00 Build 0)  -->
<svg version="1.1" id="Layer_1" xmlns="http://www.w3.org/2000/svg" xmlns:xlink="http://www.w3.org/1999/xlink" x="0px" y="0px"
	 viewBox="0 0 26 26" style="enable-background:new 0 0 26 26;" xml:space="preserve">
<style type="text/css">
	.st0{stroke:#000000;stroke-width:0.2;stroke-miterlimit:10;}
</style>
<g>
	<path class="st0 svg__st" d="M11.8,22.2c-4.5,0-8.1-3.6-8.1-8.1S7.4,6,11.8,6S20,9.6,20,14.1S16.3,22.2,11.8,22.2z M11.8,6.7
		c-4.1,0-7.4,3.3-7.4,7.4s3.3,7.4,7.4,7.4s7.4-3.3,7.4-7.4S15.9,6.7,11.8,6.7z"/>
	<path class="st0 svg__st" d="M11.8,19.1c-2.8,0-5-2.3-5-5s2.3-5,5-5s5,2.3,5,5S14.6,19.1,11.8,19.1z M11.8,9.8c-2.4,0-4.3,1.9-4.3,4.3
		s1.9,4.3,4.3,4.3s4.3-1.9,4.3-4.3S14.2,9.8,11.8,9.8z"/>
	<path class="st0 svg__st" d="M11.8,15.6c-0.9,0-1.5-0.7-1.5-1.5s0.7-1.5,1.5-1.5s1.5,0.7,1.5,1.5S12.7,15.6,11.8,15.6z M11.8,13.3
		c-0.4,0-0.8,0.4-0.8,0.8s0.4,0.8,0.8,0.8s0.8-0.4,0.8-0.8S12.3,13.3,11.8,13.3z"/>
	<path class="st0 svg__st" d="M12.3,14.1c-0.1,0-0.2,0-0.3-0.1c-0.1-0.1-0.1-0.4,0-0.5l9.5-9.6c0.1-0.1,0.4-0.1,0.5,0c0.1,0.1,0.1,0.4,0,0.5
		L12.5,14C12.5,14.1,12.4,14.1,12.3,14.1z"/>
	<path class="st0 svg__st" d="M22.5,8.4h-4.8V3.4h1.5V2.2h1.2V0.6h2.7v2.2h2.3v2.5h-1.6v1.5h-1.3V8.4z M18.4,7.6h3.3V6h1.3V4.5h1.6v-1h-2.3
		V1.4h-1.2v1.6H20v1.2h-1.5V7.6z"/>
	<path class="st0 svg__st" d="M21.3,8h-0.9c1.2,1.7,2,3.8,2,6.1c0,5.8-4.7,10.5-10.5,10.5S1.3,19.9,1.3,14.1S6,3.6,11.8,3.6
		c2.3,0,4.5,0.8,6.2,2.1V4.7c-1.8-1.2-3.9-1.9-6.2-1.9C5.6,2.8,0.6,7.9,0.6,14.1s5.1,11.3,11.3,11.3c6.2,0,11.3-5.1,11.3-11.3
		C23.1,11.8,22.5,9.8,21.3,8z"/>
</g>
</svg>
