<?xml version="1.0" encoding="utf-8"?>
<!-- Generator: Adobe Illustrator 19.2.0, SVG Export Plug-In . SVG Version: 6.00 Build 0)  -->
<svg version="1.1" id="Layer_1" xmlns="http://www.w3.org/2000/svg" xmlns:xlink="http://www.w3.org/1999/xlink" x="0px" y="0px"
	 viewBox="0 0 100 100" style="enable-background:new 0 0 100 100;" xml:space="preserve">
<path fill="#00aced" d="M62,17c-8.6,2.7-14,9.6-13.3,17.2l0.2,2.9l-3.4-0.4c-12.4-1.4-23.3-6-32.6-13.8L8.3,19l-1.2,2.9C4.7,28.3,6.3,35,11.4,39.5
	c2.7,2.5,2.1,2.9-2.6,1.4c-1.6-0.5-3.1-0.8-3.2-0.7c-0.5,0.4,1.2,5.8,2.5,8c1.8,3,5.4,5.9,9.4,7.6l3.4,1.4l-4,0.1
	c-3.8,0-4,0.1-3.6,1.3c1.4,3.9,6.8,8,12.8,9.8l4.2,1.3l-3.7,1.9c-5.5,2.7-11.9,4.3-18.3,4.4c-3.1,0.1-5.6,0.3-5.6,0.5
	c0,0.6,8.3,3.9,13.2,5.3c14.6,3.9,31.9,2.2,44.9-4.4c9.2-4.7,18.5-14.1,22.8-23.2c2.3-4.8,4.7-13.7,4.7-17.9c0-2.8,0.2-3.1,4-6.4
	c2.3-1.9,4.4-4,4.8-4.6c0.7-1.1,0.6-1.1-2.9-0.1c-5.8,1.8-6.6,1.6-3.8-1.1c2.1-1.9,4.7-5.4,4.7-6.4c0-0.2-1,0.1-2.2,0.7
	c-1.2,0.6-4,1.5-6,2l-3.7,1l-3.4-2c-1.8-1.1-4.4-2.3-5.8-2.6C70.5,15.9,65.1,16,62,17z"/>
</svg>
