<?xml version="1.0" encoding="utf-8"?>
<!-- Generator: Adobe Illustrator 19.2.0, SVG Export Plug-In . SVG Version: 6.00 Build 0)  -->
<svg version="1.1" id="Layer_1" xmlns="http://www.w3.org/2000/svg" xmlns:xlink="http://www.w3.org/1999/xlink" x="0px" y="0px"
	 viewBox="0 0 13 13" style="enable-background:new 0 0 13 13;" xml:space="preserve">
<g>
	<path d="M6.5,0.1C3,0.1,0.1,3,0.1,6.5c0,3.5,2.9,6.4,6.4,6.4c3.5,0,6.4-2.9,6.4-6.4C12.9,3,10,0.1,6.5,0.1L6.5,0.1z M10.4,7.9
		c0,0.5-0.4,1.2-1,1.3c-1.8,0.1-4,0.1-5.8,0c-0.6-0.1-1-0.8-1-1.3c-0.1-1.1-0.1-1.8,0-2.9c0-0.5,0.4-1.2,1-1.3c1.9-0.2,4-0.1,5.8,0
		c0.6,0,1,0.7,1,1.2C10.5,6.1,10.5,6.8,10.4,7.9L10.4,7.9z M10.4,7.9"/>
	<path d="M5.7,8.1l2.4-1.6L5.7,4.9V8.1z M5.7,8.1"/>
</g>
</svg>
