<?xml version="1.0" encoding="utf-8"?>
<!-- Generator: Adobe Illustrator 19.2.0, SVG Export Plug-In . SVG Version: 6.00 Build 0)  -->
<svg version="1.1" id="Layer_1" xmlns="http://www.w3.org/2000/svg" xmlns:xlink="http://www.w3.org/1999/xlink" x="0px" y="0px"
	 viewBox="0 0 19 19" style="enable-background:new 0 0 19 19;" xml:space="preserve">
<g>
	<path d="M4.8,3.5c0,1.1-0.8,2-2.2,2h0c-1.3,0-2.1-0.9-2.1-2c0-1.1,0.9-2,2.2-2C4,1.5,4.8,2.4,4.8,3.5L4.8,3.5z M0.7,18.5h3.8V7H0.7
		V18.5z M13.9,6.8c-2,0-2.9,1.1-3.4,1.9v0h0c0,0,0,0,0,0V7H6.7c0.1,1.1,0,11.5,0,11.5h3.8v-6.4c0-0.3,0-0.7,0.1-0.9
		c0.3-0.7,0.9-1.4,2-1.4c1.4,0,1.9,1.1,1.9,2.6v6.1h3.8v-6.6C18.3,8.4,16.4,6.8,13.9,6.8L13.9,6.8z M13.9,6.8"/>
</g>
</svg>
